<?xml version="1.0"?>
<svg xmlns="http://www.w3.org/2000/svg" xmlns:xlink="http://www.w3.org/1999/xlink" version="1.1" viewBox="0 0 252 252" width="64px" height="64px"><g fill="none" fill-rule="none" stroke="none" stroke-width="1" stroke-linecap="butt" stroke-linejoin="miter" stroke-miterlimit="10" stroke-dasharray="" stroke-dashoffset="0" font-family="none" font-weight="none" font-size="none" text-anchor="none" style="mix-blend-mode: normal"><path d="M0,252v-252h252v252z" fill="none" fill-rule="nonzero"/><g id="Layer_1" fill="#ffffff"><circle cx="32" cy="31" transform="scale(3.9375,3.9375)" r="5" fill-rule="evenodd"/><g fill-rule="nonzero"><path d="M125.77556,228.37894c-1.96481,0 -3.94144,-0.05119 -5.92987,-0.15356c-6.51262,-0.41737 -11.74162,-5.16994 -12.77719,-11.5605c-0.62606,-3.8745 -1.38206,-8.54831 -2.00813,-12.21019c-0.36225,-2.24437 -1.90969,-4.032 -4.04381,-4.70137c-4.29188,-1.38206 -8.41444,-3.10275 -12.27712,-5.11875c-1.99631,-1.04344 -4.36669,-0.87412 -6.18975,0.44494c-3.02794,2.18531 -6.89062,4.96912 -10.10362,7.25681c-5.21325,3.76031 -12.25744,3.42169 -17.10844,-0.83869c-3.00825,-2.6775 -5.9535,-5.60306 -8.76487,-8.71762c-4.30763,-4.89825 -4.64625,-11.95819 -0.85838,-17.20687c2.29556,-3.1815 5.0715,-7.02056 7.2135,-10.05244c1.33087,-1.84275 1.50019,-4.20131 0.46462,-6.18581c-2.05931,-4.02019 -3.76031,-8.15063 -5.05969,-12.30469c-0.67331,-2.14594 -2.47275,-3.70125 -4.6935,-4.05956l-0.83081,-0.13387c-3.54375,-0.57488 -7.83956,-1.27181 -11.44238,-1.88213c-6.34725,-1.02375 -11.088,-6.24487 -11.50144,-12.68662c-0.23625,-4.02412 -0.24413,-8.17425 -0.0315,-12.36375c0.41737,-6.51262 5.16994,-11.74162 11.5605,-12.77719c3.8745,-0.62606 8.54831,-1.38206 12.21019,-2.00813c2.24437,-0.36225 4.032,-1.90969 4.70137,-4.04381c1.38206,-4.29188 3.10275,-8.41444 5.11875,-12.27712c1.04344,-1.99237 0.87412,-4.36669 -0.44494,-6.18975c-2.18531,-3.02794 -4.96912,-6.89062 -7.25681,-10.10362c-3.76425,-5.21325 -3.42562,-12.25744 0.83869,-17.10844c2.6775,-3.00825 5.60306,-5.9535 8.71763,-8.76487c4.89825,-4.30763 11.95425,-4.65019 17.20687,-0.85838c3.1815,2.29556 7.02056,5.0715 10.05244,7.2135c1.84669,1.33087 4.20131,1.50806 6.18581,0.46463c4.02019,-2.05931 8.15062,-3.76031 12.30469,-5.05969c2.14594,-0.67331 3.70125,-2.47275 4.05956,-4.6935l0.13388,-0.83081c0.57488,-3.54375 1.27181,-7.83956 1.88213,-11.44238c1.02375,-6.34725 6.24487,-11.088 12.68663,-11.50144c4.02412,-0.23231 8.17819,-0.24412 12.36375,-0.0315c6.51263,0.41737 11.74163,5.16994 12.77719,11.5605v0c0.62606,3.87056 1.38206,8.54438 2.00812,12.20625c0.36225,2.24437 1.90969,4.032 4.04381,4.70137c4.29188,1.38206 8.41444,3.10275 12.27712,5.11875c1.99238,1.04344 4.37063,0.87412 6.18975,-0.44494c3.02794,-2.18531 6.89063,-4.96913 10.10362,-7.25681c5.20931,-3.76819 12.2535,-3.42956 17.10844,0.83869c3.00825,2.6775 5.9535,5.60306 8.76487,8.71762c4.30763,4.89825 4.64625,11.95819 0.85838,17.20688c-2.29556,3.1815 -5.0715,7.02056 -7.2135,10.05244c-1.33087,1.84275 -1.50019,4.20131 -0.46463,6.18581c2.05931,4.02019 3.76031,8.15062 5.05969,12.30469c0.67331,2.14594 2.47275,3.70125 4.6935,4.05956l0.83081,0.13387c3.54375,0.57488 7.83956,1.27181 11.44237,1.88213c6.34725,1.02375 11.088,6.24487 11.50144,12.68663c0.23625,4.02412 0.24412,8.17425 0.0315,12.36375c-0.41737,6.51263 -5.16994,11.74163 -11.5605,12.77719c-3.8745,0.62606 -8.54831,1.38206 -12.21019,2.00813c-2.24438,0.36225 -4.032,1.90969 -4.70138,4.04381c-1.38206,4.29188 -3.10275,8.41444 -5.11875,12.27712c-1.04344,1.99238 -0.87413,4.36669 0.44494,6.18975c2.18531,3.02794 4.96913,6.89063 7.25681,10.10362c3.76425,5.21325 3.42562,12.25744 -0.83869,17.10844c-2.6775,3.00825 -5.60306,5.9535 -8.71762,8.76487c-4.90219,4.30369 -11.95425,4.64625 -17.20687,0.85838c-3.1815,-2.29556 -7.02056,-5.0715 -10.05244,-7.2135c-1.84275,-1.32694 -4.19738,-1.50412 -6.18581,-0.46463c-4.02019,2.05931 -8.15062,3.76031 -12.30469,5.05969c-2.14594,0.67331 -3.70125,2.47275 -4.05956,4.6935l-0.13387,0.83081c-0.57487,3.54375 -1.27181,7.83956 -1.88213,11.44237c-1.02375,6.34725 -6.24488,11.088 -12.68663,11.50144c-2.11444,0.126 -4.26038,0.189 -6.43388,0.189zM85.995,186.07838c2.18137,0 4.37062,0.52369 6.39844,1.57894c3.465,1.81125 7.17019,3.35869 11.01319,4.59506c4.96913,1.55925 8.59162,5.74087 9.43031,10.91081c0.62606,3.64613 1.386,8.35144 2.01206,12.24563c0.441,2.73656 2.68537,4.77619 5.4495,4.95337c3.85481,0.19688 7.71356,0.18506 11.43056,-0.0315c2.72869,-0.17325 4.96125,-2.20106 5.40225,-4.92581c0.61031,-3.61069 1.30331,-7.89075 1.87425,-11.41481l0.13387,-0.83081c0.83869,-5.17781 4.46906,-9.37519 9.4815,-10.94625c3.72881,-1.1655 7.44187,-2.69325 11.03681,-4.536c4.61475,-2.40975 10.13906,-2.01206 14.38762,1.05131c3.02006,2.13413 6.88275,4.92188 10.08394,7.23319c2.25225,1.61831 5.27625,1.47656 7.35525,-0.35438c2.86256,-2.58694 5.58731,-5.3235 8.06006,-8.10337c1.80731,-2.05537 1.953,-5.06756 0.33469,-7.30013c-2.29163,-3.22087 -5.06363,-7.06781 -7.24106,-10.08c-3.07125,-4.25644 -3.46894,-9.79256 -1.03556,-14.44669c1.81125,-3.465 3.35869,-7.17019 4.59506,-11.01319c1.55925,-4.96912 5.74087,-8.59162 10.91081,-9.43031c3.64613,-0.62606 8.35144,-1.386 12.24563,-2.01206c2.73656,-0.441 4.77619,-2.68538 4.95337,-5.4495c0.19294,-3.85088 0.18506,-7.71356 -0.0315,-11.43056c-0.17325,-2.72869 -2.20106,-4.96125 -4.92581,-5.40225c-3.61069,-0.61031 -7.89075,-1.30331 -11.41481,-1.87425l-0.83081,-0.13387c-5.17781,-0.83869 -9.37519,-4.46906 -10.94625,-9.4815c-1.1655,-3.72881 -2.69325,-7.44187 -4.536,-11.03681c-2.41369,-4.61475 -2.016,-10.13906 1.05131,-14.38762c2.13413,-3.02006 4.92188,-6.88275 7.23319,-10.08394c1.62225,-2.24831 1.47656,-5.27625 -0.35438,-7.35525c-2.58694,-2.86256 -5.3235,-5.58731 -8.10337,-8.06006c-2.05144,-1.80338 -5.06363,-1.953 -7.30013,-0.33469c-3.22087,2.29163 -7.06781,5.06363 -10.08,7.24106c-4.26038,3.06731 -9.7965,3.465 -14.44669,1.03556c-3.465,-1.81125 -7.17019,-3.35869 -11.01319,-4.59506c-4.96912,-1.55925 -8.59162,-5.74088 -9.43031,-10.91081c-0.62606,-3.64612 -1.386,-8.35144 -2.01206,-12.24562c-0.441,-2.73656 -2.68538,-4.77619 -5.4495,-4.95338c-3.85481,-0.19294 -7.7175,-0.18506 -11.43056,0.0315c-2.72869,0.17325 -4.96125,2.20106 -5.40225,4.92581c-0.61031,3.61069 -1.30331,7.89075 -1.87425,11.41481l-0.13387,0.83081c-0.83869,5.17781 -4.46906,9.37519 -9.4815,10.94625c-3.72881,1.1655 -7.44187,2.69325 -11.03681,4.536c-4.61475,2.41369 -10.143,2.016 -14.38762,-1.05131c-3.02006,-2.13413 -6.88275,-4.92187 -10.08394,-7.23319c-2.25225,-1.62225 -5.27231,-1.47656 -7.35525,0.35437c-2.86256,2.58694 -5.58731,5.3235 -8.06006,8.10338c-1.80731,2.05537 -1.953,5.06756 -0.33469,7.30013c2.29163,3.22088 5.06362,7.06781 7.24106,10.08c3.07125,4.25644 3.46894,9.79256 1.03556,14.44669c-1.81125,3.465 -3.35869,7.17019 -4.59506,11.01319c-1.55925,4.96913 -5.74087,8.59162 -10.91081,9.43031c-3.64613,0.62606 -8.35144,1.386 -12.24562,2.01206c-2.73656,0.441 -4.77619,2.68537 -4.95338,5.4495c-0.19294,3.85088 -0.18506,7.71356 0.0315,11.43056c0.17325,2.72869 2.20106,4.96125 4.92581,5.40225c3.61069,0.61031 7.89075,1.30331 11.41481,1.87425l0.83081,0.13387c5.17781,0.83869 9.37519,4.46906 10.94625,9.4815c1.1655,3.72881 2.69325,7.44188 4.536,11.03681c2.41369,4.61475 2.016,10.13906 -1.05131,14.38762c-2.13412,3.02006 -4.92187,6.88275 -7.23319,10.08394c-1.62225,2.24831 -1.47656,5.27625 0.35438,7.35525c2.58694,2.86256 5.3235,5.58731 8.10338,8.06006c2.05537,1.80337 5.06756,1.95694 7.30012,0.33469c3.22088,-2.29163 7.06781,-5.06363 10.08,-7.24106c2.40187,-1.73644 5.21719,-2.6145 8.04825,-2.6145z"/></g><g fill-rule="nonzero"><path d="M126,189c-36.91013,0 -66.9375,-30.02737 -66.9375,-66.9375c0,-36.91013 30.02738,-66.9375 66.9375,-66.9375c36.91012,0 66.9375,30.02738 66.9375,66.9375c0,36.91012 -30.02737,66.9375 -66.9375,66.9375zM126,63c-32.56706,0 -59.0625,26.49544 -59.0625,59.0625c0,32.56706 26.49544,59.0625 59.0625,59.0625c32.56706,0 59.0625,-26.49544 59.0625,-59.0625c0,-32.56706 -26.49544,-59.0625 -59.0625,-59.0625z"/></g><g fill-rule="nonzero"><path d="M126,169.3125c-26.05444,0 -47.25,-21.19556 -47.25,-47.25c0,-26.05444 21.19556,-47.25 47.25,-47.25c26.05444,0 47.25,21.19556 47.25,47.25c0,26.05444 -21.19556,47.25 -47.25,47.25zM126,82.6875c-21.71138,0 -39.375,17.66362 -39.375,39.375c0,21.71137 17.66362,39.375 39.375,39.375c21.71137,0 39.375,-17.66362 39.375,-39.375c0,-21.71138 -17.66362,-39.375 -39.375,-39.375z"/></g></g></g></svg>
